<svg width="60" height="60" viewBox="0 0 60 60" fill="none" xmlns="http://www.w3.org/2000/svg">
<rect width="60" height="60" transform="translate(60 60) rotate(-180)" fill="white"/>
<path d="M33.7998 29.0476L27.7323 24.0977C27.6623 24.0406 27.5803 24.0072 27.4953 24.001C27.4104 23.9949 27.3256 24.0162 27.2501 24.0628C27.1747 24.1094 27.1115 24.1794 27.0674 24.2652C27.0234 24.351 27 24.4495 27 24.5498L27 34.4496C26.9999 34.55 27.0232 34.6485 27.0673 34.7344C27.1113 34.8204 27.1745 34.8904 27.2499 34.9371C27.3254 34.9837 27.4102 35.0051 27.4952 34.999C27.5803 34.9928 27.6622 34.9594 27.7323 34.9023L33.7998 29.9524C33.8616 29.9015 33.9121 29.8339 33.9469 29.7551C33.9818 29.6763 34 29.5888 34 29.5C34 29.4112 33.9818 29.3237 33.9469 29.2449C33.9121 29.1661 33.8616 29.0985 33.7998 29.0476V29.0476Z" fill="#3F5D45"/>
</svg>
