<svg width="60" height="60" viewBox="0 0 60 60" fill="none" xmlns="http://www.w3.org/2000/svg">
<rect width="60" height="60" fill="white"/>
<path d="M26.2002 30.9524L32.2677 35.9023C32.3377 35.9594 32.4197 35.9928 32.5047 35.999C32.5896 36.0051 32.6744 35.9838 32.7499 35.9372C32.8253 35.8906 32.8885 35.8206 32.9326 35.7348C32.9766 35.649 33 35.5505 33 35.4502V25.5504C33.0001 25.45 32.9768 25.3515 32.9327 25.2656C32.8887 25.1796 32.8255 25.1096 32.7501 25.0629C32.6746 25.0163 32.5898 24.9949 32.5048 25.001C32.4197 25.0072 32.3378 25.0406 32.2677 25.0977L26.2002 30.0476C26.1384 30.0985 26.0879 30.1661 26.0531 30.2449C26.0182 30.3237 26 30.4112 26 30.5C26 30.5888 26.0182 30.6763 26.0531 30.7551C26.0879 30.8339 26.1384 30.9015 26.2002 30.9524V30.9524Z" fill="#3F5D45"/>
</svg>
